<mxfile host="app.diagrams.net" modified="2023-05-28T18:25:03.401Z" agent="Mozilla/5.0 (X11; Linux x86_64) AppleWebKit/537.36 (KHTML, like Gecko) Chrome/113.0.0.0 Safari/537.36" version="21.3.5" etag="FxKc2Wfd8wLmMEzFCD_I" type="github">
  <diagram name="Pagina-1" id="Wt9UrQJUb0UYPPKEyl78">
    <mxGraphModel>
      <root>
        <mxCell id="0" />
        <mxCell id="1" parent="0" />
      </root>
    </mxGraphModel>
  </diagram>
</mxfile>
